2015043_C4_04_grf
version=1
nRows=30
nColumns=19
inDegrees=no
endheader
time	ground_force_1_vx	ground_force_1_vy	ground_force_1_vz	ground_force_1_px	ground_force_1_py	ground_force_1_pz	ground_force_1_mx	ground_force_1_my	ground_force_1_mz	ground_force_2_vx	ground_force_2_vy	ground_force_2_vz	ground_force_2_px	ground_force_2_py	ground_force_2_pz	ground_force_2_mx	ground_force_2_my	ground_force_2_mz
      0.58000000	      0.00000000	      0.00000000	      0.00000000	      0.00000000	      0.00000000	      0.00000000	      0.00000000	      0.00000000	      0.00000000	     -4.46796846	    669.67242211	     25.70546791	     -0.85540181	      0.00000000	      0.18826470	      0.00000000	     -1.03710231	     -0.00000000
      0.58100000	      0.00000000	      0.00000000	      0.00000000	      0.00000000	      0.00000000	      0.00000000	      0.00000000	      0.00000000	      0.00000000	     -4.37352222	    669.40869391	     25.81107803	     -0.85497839	      0.00000000	      0.18817419	      0.00000000	     -1.03390958	      0.00000000
      0.58200000	      0.00000000	      0.00000000	      0.00000000	      0.00000000	      0.00000000	      0.00000000	      0.00000000	      0.00000000	      0.00000000	     -4.27973857	    669.15066540	     25.91608837	     -0.85455285	      0.00000000	      0.18808379	      0.00000000	     -1.03082036	     -0.00000000
      0.58300000	      0.00000000	      0.00000000	      0.00000000	      0.00000000	      0.00000000	      0.00000000	      0.00000000	      0.00000000	      0.00000000	     -4.18681533	    668.90038177	     26.02031548	     -0.85412467	      0.00000000	      0.18799353	      0.00000000	     -1.02786532	     -0.00000000
      0.58400000	      0.00000000	      0.00000000	      0.00000000	      0.00000000	      0.00000000	      0.00000000	      0.00000000	      0.00000000	      0.00000000	     -4.09460370	    668.65653545	     26.12389252	     -0.85369446	      0.00000000	      0.18790337	      0.00000000	     -1.02502162	     -0.00000000
      0.58500000	      0.00000000	      0.00000000	      0.00000000	      0.00000000	      0.00000000	      0.00000000	      0.00000000	      0.00000000	      0.00000000	     -4.00330592	    668.42123866	     26.22662671	     -0.85326179	      0.00000000	      0.18781333	     -0.00000000	     -1.02232176	      0.00000000
      0.58600000	      0.00000000	      0.00000000	      0.00000000	      0.00000000	      0.00000000	      0.00000000	      0.00000000	      0.00000000	      0.00000000	     -3.91275664	    668.19304973	     26.32865310	     -0.85282720	      0.00000000	      0.18772339	      0.00000000	     -1.01974215	     -0.00000000
      0.58700000	      0.00000000	      0.00000000	      0.00000000	      0.00000000	      0.00000000	      0.00000000	      0.00000000	      0.00000000	      0.00000000	     -3.82316436	    667.97421500	     26.42975468	     -0.85239032	      0.00000000	      0.18763358	     -0.00000000	     -1.01732166	      0.00000000
      0.58800000	      0.00000000	      0.00000000	      0.00000000	      0.00000000	      0.00000000	      0.00000000	      0.00000000	      0.00000000	      0.00000000	     -3.73435328	    667.76315868	     26.53008327	     -0.85195168	      0.00000000	      0.18754391	      0.00000000	     -1.01503702	     -0.00000000
      0.58900000	      0.00000000	      0.00000000	      0.00000000	      0.00000000	      0.00000000	      0.00000000	      0.00000000	      0.00000000	      0.00000000	     -3.64653147	    667.56216064	     26.62940044	     -0.85151092	      0.00000000	      0.18745439	      0.00000000	     -1.01293324	      0.00000000
      0.59000000	      0.00000000	      0.00000000	      0.00000000	      0.00000000	      0.00000000	      0.00000000	      0.00000000	      0.00000000	      0.00000000	     -3.55950594	    667.36954451	     26.72787942	     -0.85106856	      0.00000000	      0.18736502	      0.00000000	     -1.01098363	     -0.00000000
      0.59100000	      0.00000000	      0.00000000	      0.00000000	      0.00000000	      0.00000000	      0.00000000	      0.00000000	      0.00000000	      0.00000000	     -3.47347398	    667.18789190	     26.82527062	     -0.85062427	      0.00000000	      0.18727587	      0.00000000	     -1.00923728	     -0.00000000
      0.59200000	      0.00000000	      0.00000000	      0.00000000	      0.00000000	      0.00000000	      0.00000000	      0.00000000	      0.00000000	      0.00000000	     -3.38822447	    667.01529175	     26.92176588	     -0.85017854	      0.00000000	      0.18718689	     -0.00000000	     -1.00766256	     -0.00000000
      0.59300000	      0.00000000	      0.00000000	      0.00000000	      0.00000000	      0.00000000	      0.00000000	      0.00000000	      0.00000000	      0.00000000	     -3.30392704	    666.85456038	     27.01710910	     -0.84973110	      0.00000000	      0.18709817	      0.00000000	     -1.00631313	      0.00000000
      0.59400000	      0.00000000	      0.00000000	      0.00000000	      0.00000000	      0.00000000	      0.00000000	      0.00000000	      0.00000000	      0.00000000	     -3.22036282	    666.70368612	     27.11151354	     -0.84928236	      0.00000000	      0.18700967	      0.00000000	     -1.00515282	     -0.00000000
      0.59500000	      0.00000000	      0.00000000	      0.00000000	      0.00000000	      0.00000000	      0.00000000	      0.00000000	      0.00000000	      0.00000000	     -3.13767294	    666.56558588	     27.20471937	     -0.84883214	      0.00000000	      0.18692145	      0.00000000	     -1.00423839	      0.00000000
      0.59600000	      0.00000000	      0.00000000	      0.00000000	      0.00000000	      0.00000000	      0.00000000	      0.00000000	      0.00000000	      0.00000000	     -3.05564271	    666.43808037	     27.29695477	     -0.84838080	      0.00000000	      0.18683345	      0.00000000	     -1.00352670	     -0.00000000
      0.59700000	      0.00000000	      0.00000000	      0.00000000	      0.00000000	      0.00000000	      0.00000000	      0.00000000	      0.00000000	      0.00000000	     -2.97438299	    666.32422060	     27.38796361	     -0.84792819	      0.00000000	      0.18674575	     -0.00000000	     -1.00307465	      0.00000000
      0.59800000	      0.00000000	      0.00000000	      0.00000000	      0.00000000	      0.00000000	      0.00000000	      0.00000000	      0.00000000	      0.00000000	     -2.89369302	    666.22162610	     27.47797966	     -0.84747465	      0.00000000	      0.18665827	      0.00000000	     -1.00283410	      0.00000000
      0.59900000	      0.00000000	      0.00000000	      0.00000000	      0.00000000	      0.00000000	      0.00000000	      0.00000000	      0.00000000	      0.00000000	     -2.81364302	    666.13354906	     27.56674867	     -0.84702011	      0.00000000	      0.18657108	      0.00000000	     -1.00286032	      0.00000000
      0.60000000	      0.00000000	      0.00000000	      0.00000000	      0.00000000	      0.00000000	      0.00000000	      0.00000000	      0.00000000	      0.00000000	     -2.73403390	    666.05740786	     27.65452117	     -0.84656485	      0.00000000	      0.18648411	      0.00000000	     -1.00309961	     -0.00000000
      0.60100000	      0.00000000	      0.00000000	      0.00000000	      0.00000000	      0.00000000	      0.00000000	      0.00000000	      0.00000000	      0.00000000	     -2.65487510	    665.99662229	     27.74106152	     -0.84610884	      0.00000000	      0.18639741	      0.00000000	     -1.00360475	      0.00000000
      0.60200000	      0.00000000	      0.00000000	      0.00000000	      0.00000000	      0.00000000	      0.00000000	      0.00000000	      0.00000000	      0.00000000	     -2.57598998	    665.94830900	     27.82663703	     -0.84565238	      0.00000000	      0.18631093	      0.00000000	     -1.00432216	     -0.00000000
      0.60300000	      0.00000000	      0.00000000	      0.00000000	      0.00000000	      0.00000000	      0.00000000	      0.00000000	      0.00000000	      0.00000000	     -2.49732885	    665.91612250	     27.91104093	     -0.84519547	      0.00000000	      0.18622472	      0.00000000	     -1.00530188	      0.00000000
      0.60400000	      0.00000000	      0.00000000	      0.00000000	      0.00000000	      0.00000000	      0.00000000	      0.00000000	      0.00000000	      0.00000000	     -2.41874338	    665.89707881	     27.99453959	     -0.84473833	      0.00000000	      0.18613872	      0.00000000	     -1.00648849	     -0.00000000
      0.60500000	      0.00000000	      0.00000000	      0.00000000	      0.00000000	      0.00000000	      0.00000000	      0.00000000	      0.00000000	      0.00000000	     -2.34011316	    665.89483246	     28.07695977	     -0.84428107	      0.00000000	      0.18605300	      0.00000000	     -1.00793001	      0.00000000
      0.60600000	      0.00000000	      0.00000000	      0.00000000	      0.00000000	      0.00000000	      0.00000000	      0.00000000	      0.00000000	      0.00000000	     -2.26133375	    665.90633243	     28.15856412	     -0.84382386	      0.00000000	      0.18596750	      0.00000000	     -1.00957251	     -0.00000000
      0.60700000	      0.00000000	      0.00000000	      0.00000000	      0.00000000	      0.00000000	      0.00000000	      0.00000000	      0.00000000	      0.00000000	     -2.18223080	    665.93546793	     28.23921107	     -0.84336686	      0.00000000	      0.18588228	      0.00000000	     -1.01146087	     -0.00000000
      0.60800000	      0.00000000	      0.00000000	      0.00000000	      0.00000000	      0.00000000	      0.00000000	      0.00000000	      0.00000000	      0.00000000	     -2.10276365	    665.97895324	     28.31914648	     -0.84291019	      0.00000000	      0.18579729	      0.00000000	     -1.01354376	     -0.00000000
      0.60900000	      0.00000000	      0.00000000	      0.00000000	      0.00000000	      0.00000000	      0.00000000	      0.00000000	      0.00000000	      0.00000000	     -2.02271061	    666.04067758	     28.39827724	     -0.84245410	      0.00000000	      0.18571257	     -0.00000000	     -1.01586833	      0.00000000
